<?xml version="1.0" encoding="UTF-8" standalone="no"?>
<!-- Created with Inkscape (http://www.inkscape.org/) -->

<svg
   version="1.1"
   id="svg1"
   width="50"
   height="50"
   viewBox="0 0 50 50"
   sodipodi:docname="50px_blue_notext_logo.svg"
   inkscape:version="1.3.2 (091e20e, 2023-11-25, custom)"
   xmlns:inkscape="http://www.inkscape.org/namespaces/inkscape"
   xmlns:sodipodi="http://sodipodi.sourceforge.net/DTD/sodipodi-0.dtd"
   xmlns="http://www.w3.org/2000/svg"
   xmlns:svg="http://www.w3.org/2000/svg">
  <defs
     id="defs1" />
  <sodipodi:namedview
     id="namedview1"
     pagecolor="#ffffff"
     bordercolor="#000000"
     borderopacity="0"
     inkscape:showpageshadow="2"
     inkscape:pageopacity="0.0"
     inkscape:pagecheckerboard="true"
     inkscape:deskcolor="#d1d1d1"
     showgrid="false"
     showguides="true"
     inkscape:lockguides="false"
     inkscape:zoom="8"
     inkscape:cx="30.8125"
     inkscape:cy="38.1875"
     inkscape:window-width="1920"
     inkscape:window-height="1009"
     inkscape:window-x="-8"
     inkscape:window-y="109"
     inkscape:window-maximized="1"
     inkscape:current-layer="layer1"
     showborder="false">
    <sodipodi:guide
       position="-282.50923,-35.6458"
       orientation="1,0"
       id="guide4"
       inkscape:locked="false" />
  </sodipodi:namedview>
  <g
     inkscape:groupmode="layer"
     id="layer1"
     inkscape:label="logo"
     style="display:inline">
    <g
       id="g2"
       transform="matrix(11.765998,0,0,13.073952,-1000.3232,-839.59447)"
       style="fill:#2d3e52;fill-opacity:1">
      <path
         id="path1"
         style="display:inline;opacity:1;mix-blend-mode:difference;fill:#2d3e52;fill-opacity:1;stroke:#ffffff;stroke-width:0.022341;stroke-opacity:1"
         inkscape:label="base"
         d="m 86.160419,64.231017 c -0.02698,-0.0038 -0.354646,1.399251 -0.354646,1.399251 l -0.774784,0.34692 c 0,0 0.381519,0.0088 0.474191,0.01699 0.09267,0.0082 0.07088,0.04497 0.07497,0.06269 0.0041,0.01771 -0.0082,-0.01635 -0.04226,0.09268 -0.03407,0.109026 0.07516,0.428006 0.120452,0.511845 0.04529,0.08384 0.186181,0.112342 0.240694,0.117793 0.05451,0.0054 0.05452,0.02724 0.05452,0.02724 l 0.01636,0.305279 -0.752285,-0.02181 0.381598,0.943064 3.233984,-0.01363 0.258929,-0.707308 c 0,0 -0.703223,-0.06269 -0.695045,-0.07904 0.0082,-0.01635 0.03954,-0.46062 0.03409,-0.46062 -0.0055,0 0.576458,-1e-5 0.625521,-0.0082 0.04906,-0.0082 -0.143085,-0.243939 -0.147173,-0.268469 -0.0041,-0.02453 -0.313446,-0.294367 -0.313446,-0.294367 0,0 -0.11312,-0.05861 -0.111758,-0.08723 0.0014,-0.02862 0.05441,-0.029 0.05441,-0.029 l 0.732381,0.02699 -0.971387,-0.466424 -0.605175,-1.376097 -0.743948,0.335354 c 0,0 -0.76321,-0.370061 -0.790192,-0.373915 z m 0.996568,1.820296 c 0.02783,-0.0019 0.06345,0.02609 0.06345,0.02609 0,0 -0.03083,0.03468 0.03856,0.08094 0.06938,0.04626 0.107925,0.04627 0.154181,0.03856 0.04626,-0.0077 0.07709,-0.0771 0.07324,-0.107937 -0.0038,-0.03084 0.02697,-0.027 0.02697,-0.027 0,0 0.43172,0.01929 0.48183,0.03086 0.05011,0.01157 -0.01157,0.134894 0,0.158022 0.01157,0.02313 -0.150325,0.219729 -0.300655,0.258275 -0.150332,0.03854 -0.393181,-0.09251 -0.474128,-0.177312 -0.08095,-0.0848 -0.107925,-0.250555 -0.08094,-0.273683 0.0051,-0.0044 0.01107,-0.0064 0.0175,-0.0068 z" />
    </g>
  </g>
</svg>
