<?xml version="1.0" encoding="UTF-8" standalone="no"?>
<!-- Created with Inkscape (http://www.inkscape.org/) -->

<svg
   version="1.1"
   id="svg1"
   width="50"
   height="50"
   viewBox="0 0 50 50"
   sodipodi:docname="50px_white_notext_logo.svg"
   inkscape:version="1.3.2 (091e20e, 2023-11-25, custom)"
   xmlns:inkscape="http://www.inkscape.org/namespaces/inkscape"
   xmlns:sodipodi="http://sodipodi.sourceforge.net/DTD/sodipodi-0.dtd"
   xmlns="http://www.w3.org/2000/svg"
   xmlns:svg="http://www.w3.org/2000/svg">
  <defs
     id="defs1" />
  <sodipodi:namedview
     id="namedview1"
     pagecolor="#ffffff"
     bordercolor="#000000"
     borderopacity="0"
     inkscape:showpageshadow="2"
     inkscape:pageopacity="0.0"
     inkscape:pagecheckerboard="true"
     inkscape:deskcolor="#d1d1d1"
     showgrid="false"
     showguides="true"
     inkscape:lockguides="false"
     inkscape:zoom="0.70710678"
     inkscape:cx="341.53258"
     inkscape:cy="444.77017"
     inkscape:window-width="1920"
     inkscape:window-height="1009"
     inkscape:window-x="-8"
     inkscape:window-y="109"
     inkscape:window-maximized="1"
     inkscape:current-layer="layer1"
     showborder="false">
    <sodipodi:guide
       position="-282.50923,44.3542"
       orientation="1,0"
       id="guide4"
       inkscape:locked="false" />
  </sodipodi:namedview>
  <g
     inkscape:groupmode="layer"
     id="layer1"
     inkscape:label="logo"
     style="display:inline">
    <g
       id="g2"
       transform="matrix(2.3531978,0,0,2.6147884,-199.9864,-167.92527)">
      <path
         id="path1"
         style="display:inline;opacity:1;mix-blend-mode:difference;fill:#ffffff;fill-opacity:1;stroke:#ffffff;stroke-width:0.111705;stroke-opacity:1"
         inkscape:label="base"
         d="m 90.696404,64.276321 c -0.134911,-0.01927 -1.773232,6.996259 -1.773232,6.996259 l -3.873923,1.734606 c 0,0 1.907596,0.04406 2.370957,0.08495 0.463361,0.04089 0.354402,0.224842 0.374844,0.313428 0.02044,0.08858 -0.04092,-0.08175 -0.211272,0.463381 -0.170353,0.545132 0.375803,2.14003 0.602263,2.559225 0.226461,0.419193 0.930906,0.56171 1.203471,0.588965 0.272565,0.02726 0.272585,0.136238 0.272585,0.136238 l 0.08179,1.526397 -3.761429,-0.109013 1.907994,4.715321 16.169928,-0.06817 1.29465,-3.536541 c 0,0 -3.51612,-0.313444 -3.47523,-0.395212 0.0409,-0.08177 0.19769,-2.303101 0.17044,-2.303101 -0.0273,0 2.88229,-5e-5 3.12761,-0.04095 0.24531,-0.04089 -0.71543,-1.219696 -0.73587,-1.342348 -0.0204,-0.122655 -1.56723,-1.471834 -1.56723,-1.471834 0,0 -0.5656,-0.293064 -0.55879,-0.436161 0.007,-0.143096 0.27206,-0.145 0.27206,-0.145 l 3.66191,0.134976 -4.85694,-2.332122 -3.025877,-6.880491 -3.719745,1.676776 c 0,0 -3.816049,-1.850308 -3.950962,-1.869581 z m 4.982842,9.10149 c 0.13916,-0.0096 0.317225,0.130434 0.317225,0.130434 0,0 -0.154115,0.173433 0.1928,0.404711 0.34692,0.23128 0.539625,0.23135 0.770905,0.192805 0.23128,-0.03854 0.385465,-0.385497 0.36619,-0.539684 -0.0193,-0.154187 0.13487,-0.134973 0.13487,-0.134973 0,0 2.158605,0.09646 2.409155,0.154284 0.250559,0.05782 -0.05782,0.67447 0,0.790109 0.05782,0.115639 -0.751625,1.098647 -1.50328,1.291376 -0.75166,0.192735 -1.965905,-0.46255 -2.37064,-0.88656 -0.40474,-0.424013 -0.539625,-1.252777 -0.40471,-1.368416 0.0253,-0.02168 0.05537,-0.03189 0.08749,-0.03409 z" />
    </g>
  </g>
</svg>
