<?xml version="1.0" encoding="UTF-8" standalone="no"?>
<!-- Created with Inkscape (http://www.inkscape.org/) -->

<svg
   version="1.1"
   id="svg1"
   width="600"
   height="200"
   viewBox="0 0 600 200"
   sodipodi:docname="5d1c07b1-f602-4a91-9325-8ebc2a36fa57.jpg"
   xml:space="preserve"
   inkscape:export-filename="..\OneDrive\Рабочий стол\kop_logo\text_right\200px_black_right_text_logo.svg"
   inkscape:export-xdpi="96"
   inkscape:export-ydpi="96"
   xmlns:inkscape="http://www.inkscape.org/namespaces/inkscape"
   xmlns:sodipodi="http://sodipodi.sourceforge.net/DTD/sodipodi-0.dtd"
   xmlns="http://www.w3.org/2000/svg"
   xmlns:svg="http://www.w3.org/2000/svg"><defs
     id="defs1" /><sodipodi:namedview
     id="namedview1"
     pagecolor="#ffffff"
     bordercolor="#000000"
     borderopacity="0.25"
     inkscape:showpageshadow="2"
     inkscape:pageopacity="0.0"
     inkscape:pagecheckerboard="0"
     inkscape:deskcolor="#d1d1d1"
     showgrid="false" /><g
     inkscape:groupmode="layer"
     inkscape:label="Image"
     id="g1"><path
       id="path1"
       style="display:inline;mix-blend-mode:difference;fill:#000000;fill-opacity:1;stroke:#ffffff;stroke-width:1.10168;stroke-opacity:1"
       inkscape:label="base"
       d="M 52.509347,1.1695466 C 51.247111,0.96918659 35.918962,73.903031 35.918962,73.903031 L -0.32547151,91.936096 c 0,0 17.84748051,0.458132 22.18269551,0.883177 4.335203,0.425022 3.315781,2.337462 3.507031,3.258402 0.191263,0.920908 -0.382828,-0.849854 -1.976654,4.817345 -1.593817,5.66722 3.516005,22.24788 5.634765,26.60584 2.118771,4.35795 8.709564,5.83956 11.259691,6.12293 2.550114,0.28336 2.550305,1.41635 2.550305,1.41635 l 0.765205,15.86849 -35.1919493,-1.13332 17.8512043,49.02073 151.285968,-0.70873 12.11274,-36.76608 c 0,0 -32.89679,-3.25856 -32.51427,-4.10866 0.38251,-0.85008 1.84956,-23.94314 1.59456,-23.94314 -0.25502,0 26.96684,-5.3e-4 29.26195,-0.42569 2.2951,-0.42502 -6.69352,-12.68002 -6.88477,-13.95512 -0.19133,-1.27512 -14.66306,-15.30129 -14.66306,-15.30129 0,0 -5.29172,-3.04669 -5.22799,-4.534326 0.0636,-1.487664 2.54537,-1.507424 2.54537,-1.507424 L 198.02819,98.948775 152.58664,74.703931 124.2765,3.1739452 89.474533,20.605795 c 0,0 -35.702949,-19.2358883 -36.965186,-19.4362484 z M 99.128824,95.789135 c 1.302006,-0.09931 2.967946,1.356006 2.967946,1.356006 0,0 -1.44189,1.803004 1.80388,4.207399 3.24578,2.40439 5.0487,2.40511 7.21256,2.0044 2.16385,-0.40075 3.60641,-4.00766 3.42609,-5.610594 -0.18033,-1.602926 1.26183,-1.403185 1.26183,-1.403185 0,0 20.19592,1.002847 22.54008,1.603949 2.34416,0.601103 -0.54096,7.01183 0,8.214 0.54095,1.2022 -7.03219,11.42161 -14.06471,13.42525 -7.03251,2.00367 -18.393,-4.8087 -22.17973,-9.21674 -3.786716,-4.40805 -5.048706,-13.023939 -3.786457,-14.226121 0.23665,-0.225326 0.51805,-0.331489 0.818511,-0.354364 z" /></g><g
     inkscape:groupmode="layer"
     id="layer1"
     inkscape:label="Text"><g
       id="g4"
       transform="matrix(1.7980976,0,0,1.7980976,-82.542909,-370.5001)"><path
         style="fill:#000000;fill-opacity:1;stroke:#ffffff;stroke-width:2.32501;stroke-opacity:0.0743802"
         d="m 324.49803,314.29313 -3.54733,-45.0721 c 0,0 -9.80737,-6.88602 -8.9727,-6.88602 0.83467,0 7.72069,-5.00799 7.72069,-5.00799 l -2.92135,-43.40276 c 0,0 -0.52166,-3.96468 2.81701,-4.06901 3.33867,-0.10432 42.41254,-0.93973 42.41254,-0.93973 0,0 7.96769,1.4755 7.52504,7.52505 -0.44265,6.04954 2.50835,39.98602 2.50835,39.98602 l 8.41035,5.75446 c 0,0 -6.27087,4.57405 -6.49219,4.94292 -0.22134,0.36887 3.5412,46.2569 3.24609,46.33068 -0.2951,0.0738 -0.59019,2.28702 -5.0167,2.43456 -4.4265,0.14756 -10.40227,0.73775 -10.69737,0.14756 -0.2951,-0.5902 -2.95099,-0.2951 -2.95099,-5.16425 0,-4.86915 -5.31182,-75.76689 -5.31182,-76.06199 0,-0.29509 0.14756,-6.12331 -5.82821,-7.15617 -5.97577,-1.03285 -10.69737,0.44264 -10.69737,0.44264 0,0 -1.62304,0.22134 -1.25418,3.68877 0.36889,3.46742 6.12334,81.30001 6.12334,81.30001 0,0 -0.0738,3.24609 -4.42651,3.61497 -4.35272,0.36886 -9.14809,0.59019 -9.95963,0 -0.81152,-0.59021 -1.53783,-0.61005 -2.68706,-2.40762 z"
         id="path4" /><path
         style="fill:#000000;fill-opacity:1;stroke:#ffffff;stroke-width:2.32501;stroke-opacity:0"
         d="m 187.45531,211.86652 c 0,0 0.59022,23.90308 4.7216,24.19819 4.1314,0.2951 12.39419,-25.37858 16.82069,-26.26389 4.42651,-0.8853 13.79593,-0.66396 14.1648,0.66398 0.36887,1.32795 1.47549,1.69682 -1.32795,7.59881 -2.80345,5.90201 -15.93539,32.90365 -14.97631,35.33822 0.95906,2.43457 27.81315,57.47069 27.81315,57.47069 0,0 3.39366,5.75444 0.59021,5.75444 -2.80345,0 -17.48468,0.14756 -17.48468,0.14756 0,0 -2.06569,-1.47549 -3.09855,-4.50027 -1.03284,-3.02478 -14.23856,-35.55954 -18.07486,-32.23968 -3.8363,3.31989 -2.80344,6.63976 -2.80344,6.63976 l 1.91815,26.33767 c 0,0 -0.0738,3.02477 -2.0657,3.46743 -1.99193,0.44265 -12.91064,0.14753 -12.91064,0.14753 0,0 -1.77058,-1.32793 -1.77058,-6.19709 0,-4.86915 -2.43456,-40.42868 -2.43456,-40.42868 l -9.00055,-6.7873 c 0,0 7.32133,-5.03944 7.7732,-6.0723 0.11829,-0.27036 -3.42049,-44.61109 -3.42049,-44.61109 0,0 0.22133,-2.72968 3.31987,-2.58214 3.09856,0.14756 12.61552,-1.54926 12.24664,1.91816 z"
         id="path2"
         sodipodi:nodetypes="cssssscscssccscsccscsc" /><path
         id="path3"
         style="fill:#000000;fill-opacity:1;stroke:#ffffff;stroke-width:2.32501;stroke-opacity:0"
         d="m 267.51925,207.79875 c -3.26042,-0.0293 -6.55985,0.28336 -9.58552,1.11803 -12.10267,3.33866 -14.18938,19.82339 -14.18938,19.82339 l 1.46068,28.58742 c 0,0 -6.26003,5.42535 -7.0947,5.42535 -0.83468,0 8.3467,6.05135 8.3467,6.05135 0,0 0.23965,20.96753 4.37103,33.28794 4.13139,12.32041 20.28852,16.30611 31.8712,14.46175 11.58265,-1.84437 15.99928,-12.88027 15.99928,-12.88027 l 0.23065,-35.22086 c 0,0 6.64027,-5.16408 7.37803,-5.53296 0.73775,-0.36888 -8.26323,-5.75484 -8.26323,-5.75484 0,0 -1.84492,-4.13117 -1.47604,-19.47635 0.36886,-15.34517 -3.57812,-20.63391 -6.49945,-23.97259 -1.01499,-1.15997 -12.76799,-5.82932 -22.54925,-5.91736 z m 2.36783,17.49292 c 6.87908,0.20018 7.68095,7.97723 8.28739,9.29119 0.62599,1.35633 3.756,48.6195 3.756,48.6195 0,0 1.565,16.17171 -7.30335,16.48471 -8.86835,0.313 -9.39004,-7.72069 -9.39004,-7.72069 0,0 -3.13,-38.91757 -3.96468,-51.85494 -0.83465,-12.93735 0.0591,-11.92752 0.9445,-13.40304 0,0 -0.52715,-1.09935 6.98487,-1.41234 0.23475,-0.0101 0.4634,-0.0112 0.68531,-0.004 z"
         sodipodi:nodetypes="ssccscssccscssssscscscss" /></g></g></svg>
