<svg xmlns="http://www.w3.org/2000/svg" fill="none" viewBox="0 0 99 131" class="block-one__logo"><g fill="#000" clip-path="url(#YVDIcon_svg__a)"><path d="M49.323 0h48.679c.468 0 .468 0 .468.484v100.838c0 .516 0 .516-.468.516H.672c-.585 0-.497.09-.497-.516V.545c0-.637-.058-.546.468-.546zM20.987 77.734H39.78a.535.535 0 0 0 .556-.364 341 341 0 0 1 2.313-4.639c2.02-4.062 4.068-8.155 6.088-12.248.059-.182.264-.303.469-.273 1.844 0 3.688.03 5.503 0 .35 0 .41.121.41.455 0 5.578 0 11.126-.03 16.675 0 .333.059.394.38.394H71.54c.527 0 .468.06.468-.485V25.406c0-.546.088-.516-.497-.516H44.376a36.5 36.5 0 0 0-5.445.334c-3.278.424-6.41 1.576-9.22 3.335-3.074 1.97-5.27 4.699-6.294 8.307a21.95 21.95 0 0 0-.351 10.126 14.2 14.2 0 0 0 3.454 7.095c1.698 1.849 3.747 3.122 6.06 4.032.409.151.409.151.175.546L22.04 76.037c-.351.546-.673 1.091-1.054 1.698M-.001 126.486v-.334c.059-.091.059-.212 0-.333v-7.913c.03-1.425.088-2.82.117-4.245 0-.637 0-1.243.03-1.88.029-.121.058-.242.116-.363.03-.213.176-.304.41-.243.147.03.322.091.469.152a.9.9 0 0 0 .79 0c.117-.031.263-.061.38-.031.147 0 .293.031.323-.242.029-.212.263-.212.439-.212 1.053.091 2.078.091 3.132.121.585 0 1.17-.03 1.727-.061.936-.091 1.873-.06 2.78.091 3.045.576 4.508 3.426 4.391 5.942a6.5 6.5 0 0 1-.673 2.487c-.117.181-.088.424.088.545 1.463 1.456 2.137 3.244 1.844 5.336-.263 1.88-1.288 3.305-2.869 4.245a6.3 6.3 0 0 1-3.454.849c-1.434-.031-2.868 0-4.303 0a15 15 0 0 0-2.02.03c-.556.061-1.112-.152-1.639-.03-.117.03-.234-.122-.38-.122-.234-.03-.44-.212-.556.152-.03.121-.205.061-.293-.03a2.8 2.8 0 0 0-.586-.455c-.204-.091-.117-.334-.146-.546a.87.87 0 0 0 0-.546c-.117-.757 0-1.576-.117-2.364m7.347-.364v.091h2.869c.732.06 1.434-.273 1.903-.849.234-.273.38-.667.35-1.031-.058-1.061-1.14-2.152-2.458-2.062-1.054.061-2.108.091-3.19.122l-2.547.121c-.176 0-.293 0-.293.243 0 .97 0 1.97-.03 2.94 0 .304.06.425.381.425zm-.878-7.792v-.091h2.166a2.48 2.48 0 0 0 1.58-.576 1.317 1.317 0 0 0 .264-1.849 1.25 1.25 0 0 0-.585-.455c-.527-.212-1.054-.061-1.58-.091-.528-.03-.996.061-1.494.03-.82-.03-1.639 0-2.458 0-.205 0-.264.122-.293.303-.03.789-.059 1.607-.117 2.396-.03.272.058.363.322.333zM51.343 130.095H49.06c-.059 0-.176 0-.176.06-.117.425-.439.303-.673.182a4.7 4.7 0 0 0-.878-.242c-.059-.031-.117 0-.147.03a.65.65 0 0 1-.614.121 10 10 0 0 0-1.318 0c-.526 0-.614-.06-.614-.606.058-2.486.439-4.972.468-7.458.03-2.759.176-5.488.117-8.247-.03-.879-.059-1.728-.059-2.607a.88.88 0 0 1 .879-.819h.117c.322.091.673.091.937.334.058.06.146 0 .234 0 .117-.031.263-.061.38 0 .264.121.498.151.615-.243.058-.152.234-.212.322-.091.234.303.702.334.878.788.059.182.41.122.615.122 1.2-.031 2.37-.122 3.57-.122.147 0 .294-.03.41-.121a.57.57 0 0 1 .323-.091 23.7 23.7 0 0 0 4.39-.151c.322-.031.645-.031.937-.031s.44.212.38.455c-.116.455.206.667.47.849.263.182.409.242.468.606.058.364.234.698.204 1.031-.029.334.205.515.293.788.146.364.088.576-.322.637q-1.361.228-2.722.273c-.85.03-1.669.091-2.518.121s-1.756.03-2.663 0c-.82-.03-1.64.03-2.46.061-.38 0-.79 0-1.17-.031-.205-.03-.205.061-.205.213v1.879c0 .182 0 .273.264.273 1.112.031 2.195-.121 3.307-.03.615.061 1.259 0 1.874.091.731.121 1.024.455.966 1.243s.029 1.607-.059 2.425c-.059.698-.38 1.062-1.054.971a13.8 13.8 0 0 0-2.956.03c-.703.03-1.405.091-2.078.061-.235 0-.352.06-.352.333 0 .667-.058 1.334-.088 2.001 0 .212.03.273.235.273 1.024-.061 2.02.03 3.044 0 .849-.03 1.668-.03 2.517.061.322 0 .673 0 .995-.031 1.113-.03 2.255 0 3.367.031.527.03 1.054-.122 1.58-.122.527 0 .615.122.557.637a9 9 0 0 0-.176 1.243c-.03.515 0 1 .059 1.516a.7.7 0 0 1-.059.546c-.058.03-.058.121 0 .182.088.09.146.181.088.303a.37.37 0 0 1-.38.151c-.381-.03-.762-.091-1.142-.121a41 41 0 0 0-3.864 0c-.41.03-.79 0-1.2 0a1 1 0 0 0-.644.121c-.088.061-.176.061-.264.061-.966 0-1.844-.03-2.722.061M87.933 125.605c1.025-.031 2.108-.061 3.22-.031 1.757.061 3.484-.06 5.24.031a24 24 0 0 0 1.522-.122c.556-.03.673.091.615.667a9 9 0 0 0-.176 1.213q-.044.774.088 1.546a.63.63 0 0 1-.059.516c-.058.091-.029.151.03.212s.146.182.058.303a.29.29 0 0 1-.322.152c-.41-.031-.82-.091-1.23-.122-1.2-.06-2.4-.06-3.57 0-.556.031-1.113 0-1.64 0-.058 0-.146-.03-.175 0-.44.334-.937.122-1.405.091-1.347-.06-2.693 0-4.04.061-.058 0-.146-.03-.175.061-.235.545-.586.242-.879.121a1.19 1.19 0 0 0-.965-.03c-.293.121-.644 0-.966 0-.41 0-.79.121-1.2 0-.264-.061-.323-.182-.264-.455.058-.364.03-.758.058-1.152.264-2.729.469-5.488.469-8.216 0-2.153.175-4.275.058-6.428a76 76 0 0 1-.058-2.577c0-.455.351-.849.82-.849.058 0 .117 0 .175.031.322.03.644.121.907.303.059.06.147.03.235 0a.9.9 0 0 1 .41 0c.234.091.468.121.585-.243.03-.151.234-.212.322-.121.234.303.702.333.878.788.059.212.41.121.615.121 1.2-.03 2.4-.121 3.6-.121.117 0 .234-.03.322-.091.088-.091.234-.121.351-.121 1.464.091 2.928.03 4.391-.152.322-.03.644-.03.937-.03.322 0 .41.212.38.485a.89.89 0 0 0 .469.849c.263.061.439.303.439.606.03.334.234.698.205 1.031-.03.334.234.576.322.849.117.334.03.516-.322.576-.908.152-1.844.273-2.752.273-.82.03-1.668.091-2.488.121-.878 0-1.756.031-2.634 0-.82-.03-1.64.031-2.46.061-.38 0-.79 0-1.17-.03-.205-.031-.234.03-.234.212v1.94c0 .212.029.243.263.243.79.03 1.61-.061 2.4-.061.937 0 1.845.03 2.781.121.761.061 1.025.455.996 1.243-.03.789.029 1.607-.059 2.426-.058.727-.38 1.061-1.083.97a13.5 13.5 0 0 0-2.927.03c-.703.031-1.405.091-2.078.061-.264 0-.352.091-.352.364q0 .954-.088 1.91c-.029.273.059.333.293.303.38-.03.849 0 1.317.061M40.745 130.306c-2.663.121-5.473.03-8.284.121-1.053.03-2.078-.03-3.132-.061-1.053-.03-2.107-.06-3.161-.06-.264-.031-.527-.061-.79-.122-.117 0-.205-.121-.176-.242v-.031a.98.98 0 0 1 .205-.697.64.64 0 0 0 .058-.606c-.263-.455 0-.879-.087-1.304a2.7 2.7 0 0 1 0-.97c.029-.243.117-.334.38-.303.322.03.644 0 .937.06.41.091.556-.151.673-.485.585-1.788 1.23-3.577 1.698-5.396.556-2.214 1.522-4.305 1.961-6.579q.176-.637.44-1.274c.087-.242.263-.303.438-.212.469.243.732-.091 1.054-.333.059-.061.117-.152.176-.243.058-.182.263-.273.439-.182.029 0 .029.03.058.03.293.122.644 0 .937-.06a8 8 0 0 0 1.493-.516c.498-.212.585-.151.76.334.645 2.031 1.142 4.093 1.757 6.124.41 1.364.908 2.698 1.347 4.063.497 1.516.995 3.062 1.551 4.548.088.212.176.272.38.242.147-.03.293-.03.469-.03s.38-.061.527.151c.146.213.41.334.38.576 0 .364-.087.698-.263 1.031-.088.121-.117.273-.059.394a.37.37 0 0 1 .03.303c-.117.273-.088.455.205.577.117.03.175.151.146.272 0 .031-.03.091-.059.122a3 3 0 0 0-.439.606c-.058.121-.204.121-.322.121-.526.031-1.112.061-1.727.031m-6.264-12.673a21 21 0 0 1-.527 1.819c-.351 1.061-.702 2.152-1.112 3.213-.205.516-.351 1.092-.527 1.638s-.322 1.091-.527 1.607c-.175.424-.175.454.264.454 1.639.031 3.278-.091 4.947 0 .497.031.497.031.322-.454-.879-2.668-1.903-5.306-2.693-8.035-.03-.121-.03-.212-.147-.242M71.276 117.452c-.059.182-.117.333-.146.485-.293 1.091-.761 2.152-1.113 3.244-.322.97-.702 1.94-1.054 2.91a59 59 0 0 1-.907 2.426 12 12 0 0 0-.644 1.698c-.146.606-.38 1.182-.556 1.788-.146.455-.322.485-.732.243a24 24 0 0 0-1.463-.849c-.469-.182-1.025-.273-1.435-.637l-.03-.03c-.145 0-.321.091-.409-.152-.03-.212 0-.424.146-.606.498-1 .937-2.031 1.288-3.092.586-1.577 1.171-3.184 1.64-4.821.556-1.94 1.405-3.759 1.873-5.73a12 12 0 0 1 .585-1.819c.117-.273.322-.394.527-.243.322.273.527-.03.761-.121a.95.95 0 0 0 .41-.424c.059-.152.205-.243.352-.213.029 0 .058.031.087.061.234.152.556.061.703-.182.03-.061.058-.121.058-.152.059-.212.176-.212.352-.181.175.03.439.151.497-.243.03-.152.176-.061.293 0s.234.212.41.061c.263-.213.41-.061.527.151.263.516.497 1.031.731 1.516.79 1.668 1.435 3.396 2.137 5.094.38.939.761 1.849 1.083 2.819.235.697.527 1.364.79 2.062.41 1.061.791 2.152 1.172 3.244.292.818.644 1.637.995 2.425.058.121.117.273.146.394a.41.41 0 0 1-.175.516c-.03.03-.088.03-.117.03-.41.091-.82.273-1.26.243-.058 0-.116 0-.175.03-.468.303-1.024.394-1.493.667-.175.091-.38.061-.556.212-.175.152-.322-.06-.38-.273-.176-.545-.322-1.121-.498-1.667-.234-.698-.468-1.425-.732-2.122-.41-1.092-.849-2.183-1.288-3.305a7 7 0 0 0-.41-1.001c-.82-1.394-1.112-3.031-1.844-4.456-.058.06-.087.03-.146 0"></path><path d="M55.09 42.627v6.337c0 .273-.06.333-.323.333-2.81-.03-5.62.03-8.43-.03-1.786-.03-3.542-.303-5.123-1.243-1.58-.94-2.37-2.365-2.634-4.184a8.2 8.2 0 0 1 .175-3.153c.44-1.637 1.493-2.729 2.898-3.517a10.34 10.34 0 0 1 5.006-1.183h8.02c.352 0 .41.122.381.425.03 2.062.03 4.154.03 6.215"></path></g><defs><clipPath id="YVDIcon_svg__a"><path fill="#fff" d="M0 0h98.529v130.519H0z"></path></clipPath></defs></svg>